<svg width="18" height="18" viewBox="0 0 18 18" fill="none" xmlns="http://www.w3.org/2000/svg">
<path d="M9 0C4.02955 0 0 4.02955 0 9C0 13.9705 4.02955 18 9 18C13.9705 18 18 13.9705 18 9C18 4.02955 13.9705 0 9 0ZM9 1.63636C13.0668 1.63636 16.3636 4.93323 16.3636 9C16.3636 12.3704 14.0967 15.2056 11.0063 16.08C10.9683 16.0018 10.9423 15.9161 10.9448 15.8187C10.9575 15.3241 10.9448 14.1699 10.9448 13.7461C10.9448 13.0187 10.4846 12.5028 10.4846 12.5028C10.4846 12.5028 14.0945 12.5436 14.0945 8.69158C14.0945 7.20536 13.3178 6.4312 13.3178 6.4312C13.3178 6.4312 13.7258 4.84456 13.1764 4.17161C12.5607 4.10493 11.458 4.7597 10.9871 5.0657C10.9871 5.0657 10.2412 4.75968 9 4.75968C7.75882 4.75968 7.01287 5.0657 7.01287 5.0657C6.54201 4.7597 5.43928 4.10534 4.8236 4.17161C4.2746 4.84456 4.68217 6.4312 4.68217 6.4312C4.68217 6.4312 3.90554 7.20456 3.90554 8.69078C3.90554 12.5428 7.51545 12.5028 7.51545 12.5028C7.51545 12.5028 7.10441 12.9708 7.06321 13.6414C6.82198 13.7265 6.49314 13.8268 6.17951 13.8268C5.42269 13.8268 4.84772 13.0917 4.63663 12.7513C4.42881 12.4155 4.00275 12.1337 3.60511 12.1337C3.3433 12.1337 3.2152 12.2652 3.2152 12.415C3.2152 12.5647 3.58266 12.6689 3.82484 12.9463C4.33539 13.5313 4.32593 14.8471 6.14515 14.8471C6.36025 14.8471 6.74674 14.7976 7.05522 14.7552C7.05351 15.1682 7.04872 15.5643 7.05522 15.8179C7.05762 15.9156 7.0311 16.0016 6.9929 16.08C3.90283 15.2054 1.63636 12.3701 1.63636 9C1.63636 4.93323 4.93323 1.63636 9 1.63636Z" fill="#CCCCCC"/>
</svg>
