<svg width="18" height="18" viewBox="0 0 18 18" fill="none" xmlns="http://www.w3.org/2000/svg">
<path d="M5.29805 0C0.384946 0 0 0.384497 0 5.29805V12.702C0 17.6151 0.384947 18 5.29805 18H12.702C17.6151 18 18 17.6155 18 12.702V5.29805C18 0.384497 17.6155 0 12.702 0H5.29805ZM4.12559 1.8H13.8744C16.0313 1.8 16.2 1.96874 16.2 4.12559V13.8744C16.2 16.0313 16.0308 16.2 13.8744 16.2H4.12559C1.96874 16.2 1.8 16.0308 1.8 13.8744V4.12559C1.8 1.96874 1.96874 1.8 4.12559 1.8ZM9.33311 3.46201V10.9327C9.33311 11.9596 8.44021 12.4901 7.79941 12.4901C7.31656 12.4901 6.21826 12.1116 6.21826 10.9204C6.21826 9.66986 7.24294 9.35068 7.81084 9.35068C8.14159 9.35068 8.27139 9.42188 8.27139 9.42188V7.42852C8.27139 7.42852 8.02358 7.3916 7.74053 7.3916C5.70698 7.3916 4.25918 9.03761 4.25918 10.9204C4.25918 12.5112 5.50318 14.4369 7.77568 14.4369C10.1962 14.4369 11.3045 12.4182 11.3045 10.9318V7.22637C11.3045 7.22637 12.3833 7.98135 13.8296 7.98135V6.09346C12.1704 5.97511 11.2835 4.86061 11.2219 3.46201H9.33311Z" fill="#CCCCCC"/>
</svg>
